<svg width="15" height="15" viewBox="0 0 15 15" fill="none" xmlns="http://www.w3.org/2000/svg">
<path d="M7.49375 1.25C4.04375 1.25 1.25 4.05 1.25 7.5C1.25 10.95 4.04375 13.75 7.49375 13.75C10.95 13.75 13.75 10.95 13.75 7.5C13.75 4.05 10.95 1.25 7.49375 1.25ZM10 10C9.94218 10.0579 9.8735 10.1039 9.79789 10.1353C9.72228 10.1666 9.64123 10.1828 9.55937 10.1828C9.47752 10.1828 9.39647 10.1666 9.32086 10.1353C9.24525 10.1039 9.17657 10.0579 9.11875 10L7.0625 7.94375C7.00345 7.88587 6.95646 7.81684 6.92428 7.74067C6.89209 7.66449 6.87534 7.58269 6.875 7.5V5C6.875 4.65625 7.15625 4.375 7.5 4.375C7.84375 4.375 8.125 4.65625 8.125 5V7.24375L10 9.11875C10.2437 9.3625 10.2437 9.75625 10 10Z" fill="white"/>
</svg>
