<svg width="16" height="15" viewBox="0 0 16 15" fill="none" xmlns="http://www.w3.org/2000/svg">
<path d="M8 14.434C7.88951 14.4336 7.78224 14.3967 7.69495 14.3289C4.9145 12.1686 2.9992 10.3083 1.65898 8.47301C-0.0512953 6.12763 -0.441358 3.96228 0.498793 2.03698C1.1689 0.661755 3.09421 -0.463425 5.34457 0.19168C6.41752 0.501599 7.35364 1.16623 8 2.07698C8.64636 1.16623 9.58248 0.501599 10.6554 0.19168C12.9008 -0.453424 14.8311 0.661755 15.5012 2.03698C16.4414 3.96228 16.0513 6.12763 14.341 8.47301C13.0008 10.3083 11.0855 12.1686 8.30505 14.3289C8.21776 14.3967 8.11049 14.4336 8 14.434ZM4.06437 1.00681C3.52891 0.98597 2.99788 1.11135 2.52829 1.36949C2.0587 1.62763 1.66828 2.00879 1.39894 2.47204C0.623813 4.0623 0.97387 5.83258 2.46911 7.87791C4.05815 9.92753 5.91887 11.7512 8 13.2988C10.0808 11.7528 11.9415 9.93076 13.5309 7.88291C15.0311 5.83258 15.3762 4.0623 14.6011 2.47705C14.101 1.47689 12.6007 0.681758 10.9305 1.15183C10.3949 1.31011 9.89841 1.57876 9.47294 1.9405C9.04747 2.30223 8.70245 2.74904 8.46007 3.25217C8.4224 3.34389 8.3583 3.42234 8.27594 3.47755C8.19357 3.53276 8.09666 3.56224 7.9975 3.56224C7.89834 3.56224 7.80142 3.53276 7.71906 3.47755C7.63669 3.42234 7.5726 3.34389 7.53493 3.25217C7.29438 2.74778 6.94994 2.29993 6.52421 1.93797C6.09847 1.57601 5.60104 1.30811 5.06453 1.15183C4.73946 1.05742 4.40286 1.00861 4.06437 1.00681Z" fill="url(#paint0_linear_111_777)"/>
<defs>
<linearGradient id="paint0_linear_111_777" x1="-3.45946" y1="-9.02123" x2="19.9092" y2="-3.28645" gradientUnits="userSpaceOnUse">
<stop stop-color="#976464"/>
<stop offset="1" stop-color="#CFA5A5"/>
</linearGradient>
</defs>
</svg>
