<svg width="24" height="24" viewBox="0 0 24 24" fill="none" xmlns="http://www.w3.org/2000/svg">
<path d="M22.5 5.25H16.5V3C16.4993 2.40346 16.2621 1.83155 15.8403 1.40973C15.4185 0.987918 14.8465 0.750655 14.25 0.75H9.75C9.15346 0.750655 8.58155 0.987918 8.15973 1.40973C7.73792 1.83155 7.50066 2.40346 7.5 3V5.25H1.5C1.30109 5.25 1.11032 5.32902 0.96967 5.46967C0.829018 5.61032 0.75 5.80109 0.75 6C0.75 6.19891 0.829018 6.38968 0.96967 6.53033C1.11032 6.67098 1.30109 6.75 1.5 6.75H22.5C22.6989 6.75 22.8897 6.67098 23.0303 6.53033C23.171 6.38968 23.25 6.19891 23.25 6C23.25 5.80109 23.171 5.61032 23.0303 5.46967C22.8897 5.32902 22.6989 5.25 22.5 5.25ZM9 5.25V3C9.00012 2.80112 9.07917 2.61043 9.2198 2.4698C9.36043 2.32918 9.55112 2.25012 9.75 2.25H14.25C14.4489 2.25012 14.6396 2.32918 14.7802 2.4698C14.9208 2.61043 14.9999 2.80112 15 3V5.25H9Z" fill="#BDBDBD"/>
<path d="M5.76096 22.6231C5.79 22.7983 5.8803 22.9575 6.01578 23.0723C6.15125 23.1871 6.3231 23.2501 6.50068 23.25H17.5002C17.6778 23.2501 17.8496 23.1871 17.9851 23.0723C18.1206 22.9575 18.2109 22.7983 18.2399 22.6231L20.6356 8.25H3.36523L5.76096 22.6231ZM13.5004 12C13.5004 11.8011 13.5795 11.6103 13.7201 11.4697C13.8608 11.329 14.0515 11.25 14.2504 11.25C14.4493 11.25 14.6401 11.329 14.7808 11.4697C14.9214 11.6103 15.0004 11.8011 15.0004 12V19.5C15.0004 19.6989 14.9214 19.8897 14.7808 20.0303C14.6401 20.171 14.4493 20.25 14.2504 20.25C14.0515 20.25 13.8608 20.171 13.7201 20.0303C13.5795 19.8897 13.5004 19.6989 13.5004 19.5V12ZM9.00043 12C9.00043 11.8011 9.07945 11.6103 9.2201 11.4697C9.36076 11.329 9.55152 11.25 9.75043 11.25C9.94935 11.25 10.1401 11.329 10.2808 11.4697C10.4214 11.6103 10.5004 11.8011 10.5004 12V19.5C10.5004 19.6989 10.4214 19.8897 10.2808 20.0303C10.1401 20.171 9.94935 20.25 9.75043 20.25C9.55152 20.25 9.36076 20.171 9.2201 20.0303C9.07945 19.8897 9.00043 19.6989 9.00043 19.5V12Z" fill="#BDBDBD"/>
</svg>
